<?xml version="1.0" encoding="UTF-8" standalone="no"?>
<!-- Created with Inkscape (http://www.inkscape.org/) -->

<svg
   xmlns:dc="http://purl.org/dc/elements/1.1/"
   xmlns:cc="http://creativecommons.org/ns#"
   xmlns:rdf="http://www.w3.org/1999/02/22-rdf-syntax-ns#"
   xmlns:svg="http://www.w3.org/2000/svg"
   xmlns="http://www.w3.org/2000/svg"
   xmlns:xlink="http://www.w3.org/1999/xlink"
   xmlns:sodipodi="http://sodipodi.sourceforge.net/DTD/sodipodi-0.dtd"
   xmlns:inkscape="http://www.inkscape.org/namespaces/inkscape"
   width="276"
   height="140"
   id="svg2"
   version="1.1"
   inkscape:version="0.48.4 r9939"
   sodipodi:docname="RoadDepots_32bpp.svg"
   inkscape:export-filename="TrainDepots_32bpp.png"
   inkscape:export-xdpi="90"
   inkscape:export-ydpi="90">
  <defs
     id="defs4" />
  <sodipodi:namedview
     id="base"
     pagecolor="#ffffff"
     bordercolor="#666666"
     borderopacity="1.0"
     inkscape:pageopacity="0.0"
     inkscape:pageshadow="2"
     inkscape:zoom="4.0000001"
     inkscape:cx="155.28543"
     inkscape:cy="43.637337"
     inkscape:document-units="px"
     inkscape:current-layer="layer1"
     showgrid="true"
     inkscape:snap-bbox="true"
     inkscape:window-width="1680"
     inkscape:window-height="1028"
     inkscape:window-x="1672"
     inkscape:window-y="-8"
     inkscape:window-maximized="1">
    <inkscape:grid
       type="xygrid"
       id="grid2985"
       empspacing="2"
       visible="true"
       enabled="true"
       snapvisiblegridlinesonly="true" />
  </sodipodi:namedview>
  <metadata
     id="metadata7">
    <rdf:RDF>
      <cc:Work
         rdf:about="">
        <dc:format>image/svg+xml</dc:format>
        <dc:type
           rdf:resource="http://purl.org/dc/dcmitype/StillImage" />
        <dc:title />
      </cc:Work>
    </rdf:RDF>
  </metadata>
  <g
     inkscape:label="Layer 1"
     inkscape:groupmode="layer"
     id="layer1"
     transform="translate(0,-912.36218)">
    <rect
       style="opacity:1;fill:#ffffff;fill-opacity:1;fill-rule:evenodd;stroke:none"
       id="rect3064"
       width="276"
       height="140"
       x="0"
       y="0"
       transform="translate(0,912.36218)" />
    <rect
       style="fill:#0000ff;fill-opacity:1;stroke:none"
       id="rect2987-1-2-1"
       width="64"
       height="64"
       x="140"
       y="916.36218" />
    <rect
       style="fill:#0000ff;fill-opacity:1;stroke:none"
       id="rect2987-1-1"
       width="64"
       height="64"
       x="4"
       y="984.36218" />
    <rect
       style="fill:#0000ff;fill-opacity:1;stroke:none"
       id="rect2987-3-5-2"
       width="64"
       height="64"
       x="208"
       y="984.36218" />
    <image
       y="984.36218"
       x="4"
       id="image3066-7"
       xlink:href="file:///M:/OpenTTDCoop/OpenGFX%20Mars/graphics/Buildings/Depots/BuildingBlockv2_Depot_32x32a.png"
       height="64"
       width="64" />
    <image
       y="984.36218"
       x="208"
       id="image3055-4"
       xlink:href="file:///M:/OpenTTDCoop/OpenGFX%20Mars/graphics/Buildings/Depots/BuildingBlockv2_Depot_32x32.png"
       height="64"
       width="64" />
    <rect
       style="fill:#0000ff;fill-opacity:1;stroke:none"
       id="rect2987-1"
       width="64"
       height="64"
       x="4"
       y="916.36218" />
    <image
       y="916.36218"
       x="4"
       id="image3066"
       xlink:href="file:///M:/OpenTTDCoop/OpenGFX%20Mars/graphics/Buildings/Depots/BuildingBlockv2_Depot_32x32a.png"
       height="64"
       width="64" />
    <image
       y="910.36218"
       x="4"
       id="image3044"
       xlink:href="file:///M:/OpenTTDCoop/OpenGFX%20Mars/graphics/Buildings/Depots/BuildingBlockv2_32x32.png"
       height="64"
       width="64" />
    <rect
       style="fill:#0000ff;fill-opacity:1;stroke:none"
       id="rect2987-3-5"
       width="64"
       height="64"
       x="208"
       y="916.36218" />
    <image
       y="916.36218"
       x="208"
       id="image3055"
       xlink:href="file:///M:/OpenTTDCoop/OpenGFX%20Mars/graphics/Buildings/Depots/BuildingBlockv2_Depot_32x32.png"
       height="64"
       width="64" />
    <image
       y="910.36218"
       x="208"
       id="image3044-1"
       xlink:href="file:///M:/OpenTTDCoop/OpenGFX%20Mars/graphics/Buildings/Depots/BuildingBlockv2_32x32.png"
       height="64"
       width="64" />
    <rect
       style="fill:#0000ff;fill-opacity:1;stroke:none"
       id="rect2987-1-2"
       width="64"
       height="64"
       x="72"
       y="916.36218" />
    <image
       sodipodi:absref="M:\OpenTTDCoop\OpenGFX Mars\graphics\Buildings\Depots/BuildingBlockv2_28x32.png"
       xlink:href="Depots/BuildingBlockv2_28x32.png"
       y="910.36218"
       x="140"
       id="image3031-7"
       height="64"
       width="64" />
    <image
       sodipodi:absref="M:\OpenTTDCoop\OpenGFX Mars\graphics\Buildings\BlockShapes/AirLockTunnel2_2.png"
       xlink:href="BlockShapes/AirLockTunnel2_2.png"
       y="1017.3622"
       x="4"
       id="image3068-2"
       height="31"
       width="64" />
    <image
       sodipodi:absref="M:\OpenTTDCoop\OpenGFX Mars\graphics\Buildings\Depots/BuildingBlockv2_32x28.png"
       xlink:href="Depots/BuildingBlockv2_32x28.png"
       y="978.36218"
       x="4"
       id="image3395-2"
       height="64"
       width="64" />
    <image
       sodipodi:absref="M:\OpenTTDCoop\OpenGFX Mars\graphics\Buildings\Parts/top_vent.png"
       xlink:href="Parts/top_vent.png"
       y="1006.3622"
       x="22"
       id="image4278-8-7-2"
       height="8"
       width="12" />
    <image
       sodipodi:absref="M:\OpenTTDCoop\OpenGFX Mars\graphics\Buildings\Parts/arial_tall.png"
       xlink:href="Parts/arial_tall.png"
       y="1011.3622"
       x="12"
       id="image4242-88-3"
       height="28"
       width="3" />
    <path
       style="fill:#0000ff;fill-opacity:1;stroke:none"
       d="m 42,1048.3622 0,-16 2,0 0,-1 2,0 0,-1 2,0 0,-1 2,0 0,-1 2,0 0,-1 2,0 0,-1 2,0 0,-1 2,0 0,-1 2,0 0,-1 8,0 0,-39.00002 -64,0 0,64.00002 z"
       id="path3463-1"
       inkscape:connector-curvature="0"
       sodipodi:nodetypes="ccccccccccccccccccccccccc" />
    <path
       style="fill:#0000ff;fill-opacity:1;stroke:none"
       d="m 234,980.36218 0,-16 -2,0 0,-1 -2,0 0,-1 -2,0 0,-1 -2,0 0,-1 -2,0 0,-1 -2,0 0,-1 -2,0 0,-1 -2,0 0,-1 -2,0 0,-1 -8,0 0,25 z"
       id="path3463-7"
       inkscape:connector-curvature="0" />
    <image
       sodipodi:absref="M:\OpenTTDCoop\OpenGFX Mars\graphics\Buildings\Parts/arial_tall.png"
       xlink:href="Parts/arial_tall.png"
       y="996.36218"
       x="236"
       id="image4242-88-18-3"
       height="28"
       width="3" />
    <image
       sodipodi:absref="M:\OpenTTDCoop\OpenGFX Mars\graphics\Buildings\Depots/BuildingBlockv2_28x32.png"
       xlink:href="Depots/BuildingBlockv2_28x32.png"
       y="978.36218"
       x="208"
       id="image3513-6-1"
       height="64"
       width="64" />
    <image
       sodipodi:absref="M:\OpenTTDCoop\OpenGFX Mars\graphics\Buildings\BlockShapes/AirLockTunnel_2.png"
       xlink:href="BlockShapes/AirLockTunnel_2.png"
       y="1017.3622"
       x="208"
       id="image3542-8-1"
       height="31"
       width="64" />
    <image
       sodipodi:absref="M:\OpenTTDCoop\OpenGFX Mars\graphics\Buildings\Parts/top_vent.png"
       xlink:href="Parts/top_vent.png"
       y="1006.3622"
       x="242"
       id="image4278-8-7-9-3"
       height="8"
       width="12" />
    <path
       style="fill:#0000ff;fill-opacity:1;stroke:none"
       d="m 234,1048.3622 0,-16 -2,0 0,-1 -2,0 0,-1 -2,0 0,-1 -2,0 0,-1 -2,0 0,-1 -2,0 0,-1 -2,0 0,-1 -2,0 0,-1 -2,0 0,-1 -8,0 0,-39.00002 64,0 0,64.00002 z"
       id="path3463-1-9"
       inkscape:connector-curvature="0"
       sodipodi:nodetypes="ccccccccccccccccccccccccc" />
    <path
       style="fill:#0000ff;fill-opacity:1;stroke:none"
       d="m 42,980.36218 0,-16 2,0 0,-1 2,0 0,-1 2,0 0,-1 2,0 0,-1 2,0 0,-1 2,0 0,-1 2,0 0,-1 2,0 0,-1 2,0 0,-1 8,0 0,25 z"
       id="path3463"
       inkscape:connector-curvature="0" />
    <image
       y="916.36218"
       x="72"
       id="image3033"
       xlink:href="file:///M:/OpenTTDCoop/OpenGFX%20Mars/graphics/Buildings/Depots/BuildingBlockv2_Depot2_32x32.png"
       height="64"
       width="64" />
    <image
       y="916.36218"
       x="140"
       id="image3033-0"
       xlink:href="file:///M:/OpenTTDCoop/OpenGFX%20Mars/graphics/Buildings/Depots/BuildingBlockv2_Depot2_32x32.png"
       height="64"
       width="64" />
    <image
       y="910.36218"
       x="72"
       id="image3044-9"
       xlink:href="file:///M:/OpenTTDCoop/OpenGFX%20Mars/graphics/Buildings/Depots/BuildingBlockv2_32x32.png"
       height="64"
       width="64" />
    <image
       y="910.36218"
       x="140"
       id="image3044-9-4"
       xlink:href="file:///M:/OpenTTDCoop/OpenGFX%20Mars/graphics/Buildings/Depots/BuildingBlockv2_32x32.png"
       height="64"
       width="64" />
    <image
       y="949.36218"
       x="140"
       id="image3170"
       xlink:href="file:///M:/OpenTTDCoop/OpenGFX%20Mars/graphics/Buildings/BlockShapes/AirLockTunnel_0.png"
       height="31"
       width="64" />
    <image
       y="949.36218"
       x="140"
       id="image3181"
       xlink:href="file:///M:/OpenTTDCoop/OpenGFX%20Mars/graphics/Buildings/BlockShapes/AirLockTunnel2_0.png"
       height="31"
       width="64" />
    <image
       y="949.36218"
       x="72"
       id="image3170-8"
       xlink:href="file:///M:/OpenTTDCoop/OpenGFX%20Mars/graphics/Buildings/BlockShapes/AirLockTunnel_0.png"
       height="31"
       width="64" />
    <image
       y="949.36218"
       x="72"
       id="image3181-8"
       xlink:href="file:///M:/OpenTTDCoop/OpenGFX%20Mars/graphics/Buildings/BlockShapes/AirLockTunnel2_0.png"
       height="31"
       width="64" />
    <image
       y="949.36218"
       x="4"
       id="image3181-4"
       xlink:href="file:///M:/OpenTTDCoop/OpenGFX%20Mars/graphics/Buildings/BlockShapes/AirLockTunnel2_0.png"
       height="31"
       width="64" />
    <image
       y="949.36218"
       x="208"
       id="image3170-5"
       xlink:href="file:///M:/OpenTTDCoop/OpenGFX%20Mars/graphics/Buildings/BlockShapes/AirLockTunnel_0.png"
       height="31"
       width="64" />
    <image
       y="944.36218"
       x="42"
       id="image3253"
       xlink:href="file:///M:/OpenTTDCoop/OpenGFX%20Mars/graphics/Buildings/Parts/cc_placard_left.png"
       height="14"
       width="12" />
    <image
       y="934.36218"
       x="90"
       id="image3253-1"
       xlink:href="file:///M:/OpenTTDCoop/OpenGFX%20Mars/graphics/Buildings/Parts/cc_placard_left.png"
       height="14"
       width="12" />
    <image
       y="944.36218"
       x="224"
       id="image3231-1"
       xlink:href="file:///M:/OpenTTDCoop/OpenGFX%20Mars/graphics/Buildings/Parts/cc_placard_right.png"
       height="14"
       width="12" />
    <image
       y="934.36218"
       x="174"
       id="image3231-7"
       xlink:href="file:///M:/OpenTTDCoop/OpenGFX%20Mars/graphics/Buildings/Parts/cc_placard_right.png"
       height="14"
       width="12" />
  </g>
</svg>
