<?xml version="1.0" encoding="UTF-8" standalone="no"?>
<!-- Created with Inkscape (http://www.inkscape.org/) -->

<svg
   xmlns:dc="http://purl.org/dc/elements/1.1/"
   xmlns:cc="http://creativecommons.org/ns#"
   xmlns:rdf="http://www.w3.org/1999/02/22-rdf-syntax-ns#"
   xmlns:svg="http://www.w3.org/2000/svg"
   xmlns="http://www.w3.org/2000/svg"
   xmlns:xlink="http://www.w3.org/1999/xlink"
   xmlns:sodipodi="http://sodipodi.sourceforge.net/DTD/sodipodi-0.dtd"
   xmlns:inkscape="http://www.inkscape.org/namespaces/inkscape"
   width="548"
   height="512"
   id="svg2"
   version="1.1"
   inkscape:version="0.48.4 r9939"
   sodipodi:docname="TownBuildings_Habitats_32bpp.svg"
   inkscape:export-filename="TownBuildings_Habitats_32bpp.png"
   inkscape:export-xdpi="90"
   inkscape:export-ydpi="90">
  <defs
     id="defs4" />
  <sodipodi:namedview
     id="base"
     pagecolor="#ffffff"
     bordercolor="#666666"
     borderopacity="1.0"
     inkscape:pageopacity="0.0"
     inkscape:pageshadow="2"
     inkscape:zoom="1.4142136"
     inkscape:cx="323.07252"
     inkscape:cy="323.3771"
     inkscape:document-units="px"
     inkscape:current-layer="layer1"
     showgrid="true"
     inkscape:snap-bbox="true"
     inkscape:window-width="1680"
     inkscape:window-height="1028"
     inkscape:window-x="1672"
     inkscape:window-y="-8"
     inkscape:window-maximized="1">
    <inkscape:grid
       type="xygrid"
       id="grid2985"
       empspacing="2"
       visible="true"
       enabled="true"
       snapvisiblegridlinesonly="true" />
  </sodipodi:namedview>
  <metadata
     id="metadata7">
    <rdf:RDF>
      <cc:Work
         rdf:about="">
        <dc:format>image/svg+xml</dc:format>
        <dc:type
           rdf:resource="http://purl.org/dc/dcmitype/StillImage" />
        <dc:title />
      </cc:Work>
    </rdf:RDF>
  </metadata>
  <g
     inkscape:label="Layer 1"
     inkscape:groupmode="layer"
     id="layer1"
     transform="translate(0,-540.36218)">
    <rect
       style="fill:#0000ff;fill-opacity:1;stroke:none"
       id="rect2987-0-1"
       width="64"
       height="64"
       x="480"
       y="544.36218" />
    <rect
       style="fill:#0000ff;fill-opacity:1;stroke:none"
       id="rect2987-0"
       width="64"
       height="64"
       x="412"
       y="544.36218" />
    <image
       sodipodi:absref="M:\OpenTTDCoop\OpenGFX Mars\graphics\Buildings\BlockShapes/BuildingBlockv2_28x16.png"
       xlink:href="BlockShapes/BuildingBlockv2_28x16.png"
       width="64"
       height="64"
       id="image3873-0"
       x="430"
       y="536.36218" />
    <image
       y="577.36218"
       x="412"
       id="image3223"
       xlink:href="file:///M:/OpenTTDCoop/OpenGFX%20Mars/graphics/Buildings/BlockShapes/AirLockTunnel_32.png"
       height="31"
       width="64" />
    <rect
       style="fill:#0000ff;fill-opacity:1;stroke:none"
       id="rect2987-1-1"
       width="64"
       height="64"
       x="4"
       y="680.36218" />
    <image
       sodipodi:absref="M:\OpenTTDCoop\OpenGFX Mars\graphics\Buildings\BlockShapes/AirLockTunnel2_16.png"
       xlink:href="BlockShapes/AirLockTunnel2_16.png"
       width="64"
       height="31"
       id="image4753"
       x="4"
       y="713.36218" />
    <rect
       style="fill:#0000ff;fill-opacity:1;stroke:none"
       id="rect2987-3-8"
       width="64"
       height="64"
       x="72"
       y="680.36218" />
    <image
       sodipodi:absref="M:\OpenTTDCoop\OpenGFX Mars\graphics\Buildings\BlockShapes/AirLockTunnel_8.png"
       xlink:href="BlockShapes/AirLockTunnel_8.png"
       width="64"
       height="31"
       id="image4742"
       x="72"
       y="713.36218" />
    <rect
       style="fill:#0000ff;fill-opacity:1;stroke:none"
       id="rect2987-1"
       width="64"
       height="64"
       x="4"
       y="544.36218" />
    <rect
       style="fill:#0000ff;fill-opacity:1;stroke:none"
       id="rect2987-3"
       width="64"
       height="64"
       x="72"
       y="544.36218" />
    <rect
       style="fill:#0000ff;fill-opacity:1;stroke:none"
       id="rect2987-5"
       width="64"
       height="64"
       x="140"
       y="544.36218" />
    <rect
       style="fill:#0000ff;fill-opacity:1;stroke:none"
       id="rect2987-9"
       width="64"
       height="64"
       x="208"
       y="544.36218" />
    <rect
       style="fill:#0000ff;fill-opacity:1;stroke:none"
       id="rect2987-8"
       width="64"
       height="64"
       x="276"
       y="544.36218" />
    <rect
       style="fill:#0000ff;fill-opacity:1;stroke:none"
       id="rect2987-4"
       width="64"
       height="64"
       x="344"
       y="544.36218" />
    <image
       sodipodi:absref="M:\OpenTTDCoop\OpenGFX Mars\graphics\Buildings\BlockShapes/AirLockTunnel2_32.png"
       xlink:href="BlockShapes/AirLockTunnel2_32.png"
       width="64"
       height="31"
       id="image3177"
       x="4"
       y="577.36218" />
    <use
       x="0"
       y="0"
       xlink:href="#rect2987"
       id="use3986"
       transform="translate(0,204)"
       width="512"
       height="512" />
    <use
       x="0"
       y="0"
       xlink:href="#image3845"
       id="use3994"
       transform="translate(64,144)"
       width="512"
       height="512" />
    <use
       x="0"
       y="0"
       xlink:href="#rect2987"
       id="use3972"
       transform="translate(0,136)"
       width="512"
       height="512" />
    <use
       x="0"
       y="0"
       xlink:href="#image3856"
       id="use3984"
       transform="translate(64,138)"
       width="512"
       height="512" />
    <use
       x="0"
       y="0"
       xlink:href="#rect2987"
       id="use3968"
       transform="translate(0,67.999997)"
       width="512"
       height="512" />
    <use
       x="0"
       y="0"
       xlink:href="#image3823"
       id="use3982"
       transform="translate(64,101)"
       width="512"
       height="512" />
    <rect
       style="fill:#0000ff;fill-opacity:1;stroke:none"
       id="rect2987"
       width="64"
       height="64"
       x="-80"
       y="532.36218" />
    <path
       id="path3775-7-4"
       style="fill:#000000;fill-opacity:0.21052629;stroke:none"
       d="m -46,596.36218 0,-1 2,0 0,-1 2,0 0,-1 2,0 0,-1 2,0 0,-1 2,0 0,-1 2,0 0,-1 2,0 0,-1 2,0 0,-1 2,0 0,-1 2,0 0,-1 2,0 0,-1 2,0 0,-1 2,0 0,-1 2,0 0,-1 2,0 0,0 0,-1 0,0 -2,0 0,-1 -2,0 0,-1 -2,0 0,-1 -2,0 0,-1 -2,0 0,-1 -2,0 0,-1 -2,0 0,-1 -2,0 0,-1 -2,0 0,-1 -2,0 0,-1 -2,0 0,-1 -2,0 0,-1 -2,0 0,-1 -2,0 0,-1 -2,0 0,-1 -4,0 0,1 -2,0 0,1 -2,0 0,1 -2,0 0,1 -2,0 0,1 -2,0 0,1 -2,0 0,1 -2,0 0,1 -2,0 0,1 -2,0 0,1 -2,0 0,1 -2,0 0,1 -2,0 0,1 -2,0 0,1 -2,0 0,1 -2,0 0,0 0,1 0,0 2,0 0,1 2,0 0,1 2,0 0,1 2,0 0,1 2,0 0,1 2,0 0,1 2,0 0,1 2,0 0,1 2,0 0,1 2,0 0,1 2,0 0,1 2,0 0,1 2,0 0,1 2,0 0,1 2,0 0,1 z"
       inkscape:connector-curvature="0"
       sodipodi:nodetypes="ccccccccccccccccccccccccccccccccccccccccccccccccccccccccccccccccccccccccccccccccccccccccccccccccccccccccccccccccccccccccccccccccc" />
    <image
       sodipodi:absref="M:\OpenTTDCoop\OpenGFX Mars\graphics\Buildings\GeneralTiles/BaseGroundTile_32bpp.png"
       xlink:href="GeneralTiles/BaseGroundTile_32bpp.png"
       width="64"
       height="31"
       id="image3823"
       x="-144"
       y="532.36218" />
    <image
       sodipodi:absref="M:\OpenTTDCoop\OpenGFX Mars\graphics\Buildings\GeneralTiles/ConcreteGroundTile_32bpp.png"
       xlink:href="GeneralTiles/ConcreteGroundTile_32bpp.png"
       width="64"
       height="31"
       id="image3834"
       x="-144"
       y="594.36218" />
    <image
       sodipodi:absref="M:\OpenTTDCoop\OpenGFX Mars\graphics\Buildings\GeneralTiles/DesertGroundTile_32bpp.png"
       xlink:href="GeneralTiles/DesertGroundTile_32bpp.png"
       width="64"
       height="31"
       id="image3845"
       x="-144"
       y="625.36218" />
    <image
       sodipodi:absref="M:\OpenTTDCoop\OpenGFX Mars\graphics\Buildings\GeneralTiles/SnowGroundTile_32bpp.png"
       xlink:href="GeneralTiles/SnowGroundTile_32bpp.png"
       width="64"
       height="31"
       id="image3856"
       x="-144"
       y="563.36218" />
    <image
       sodipodi:absref="M:\OpenTTDCoop\OpenGFX Mars\graphics\Buildings\GeneralTiles/BaseGroundTile_32bpp.png"
       xlink:href="GeneralTiles/BaseGroundTile_32bpp.png"
       width="64"
       height="31"
       id="image3823-9"
       x="-80"
       y="633.36218" />
    <path
       id="path3775-7-4-4-8"
       style="opacity:0.45;fill:#000000;fill-opacity:1;fill-rule:evenodd;stroke:none"
       d="m -46,595.36218 0,-1 2,0 0,-1 2,0 0,-1 2,0 0,-1 2,0 0,-1 2,0 0,-1 2,0 0,-1 2,0 0,-1 2,0 0,-1 2,0 0,-1 2,0 0,-1 2,0 0,-1 2,0 0,-1 2,0 0,-1 2,0 0,0 0,-1 0,0 -2,0 0,-1 -2,0 0,-1 -2,0 0,-1 -2,0 0,-1 -2,0 0,-1 -2,0 0,-1 -2,0 0,-1 -2,0 0,-1 -2,0 0,-1 -2,0 0,-1 -2,0 0,-1 -2,0 0,-1 -2,0 0,-1 -2,0 0,-1 -4,0 0,1 -2,0 0,1 -2,0 0,1 -2,0 0,1 -2,0 0,1 -2,0 0,1 -2,0 0,1 -2,0 0,1 -2,0 0,1 -2,0 0,1 -2,0 0,1 -2,0 0,1 -2,0 0,1 -2,0 0,1 -2,0 0,0 0,1 0,0 2,0 0,1 2,0 0,1 2,0 0,1 2,0 0,1 2,0 0,1 2,0 0,1 2,0 0,1 2,0 0,1 2,0 0,1 2,0 0,1 2,0 0,1 2,0 0,1 2,0 0,1 2,0 0,1 z m 0,1 0,-1 2,0 0,-1 2,0 0,-1 2,0 0,-1 2,0 0,-1 2,0 0,-1 2,0 0,-1 2,0 0,-1 2,0 0,-1 2,0 0,-1 2,0 0,-1 2,0 0,-1 2,0 0,-1 2,0 0,-1 2,0 0,-1 2,0 0,0 0,-1 0,0 -2,0 0,-1 -2,0 0,-1 -2,0 0,-1 -2,0 0,-1 -2,0 0,-1 -2,0 0,-1 -2,0 0,-1 -2,0 0,-1 -2,0 0,-1 -2,0 0,-1 -2,0 0,-1 -2,0 0,-1 -2,0 0,-1 -2,0 0,-1 -2,0 0,-1 -4,0 0,1 -2,0 0,1 -2,0 0,1 -2,0 0,1 -2,0 0,1 -2,0 0,1 -2,0 0,1 -2,0 0,1 -2,0 0,1 -2,0 0,1 -2,0 0,1 -2,0 0,1 -2,0 0,1 -2,0 0,1 -2,0 0,1 -2,0 0,0 0,1 0,0 2,0 0,1 2,0 0,1 2,0 0,1 2,0 0,1 2,0 0,1 2,0 0,1 2,0 0,1 2,0 0,1 2,0 0,1 2,0 0,1 2,0 0,1 2,0 0,1 2,0 0,1 2,0 0,1 2,0 0,1 z"
       inkscape:connector-curvature="0" />
    <use
       x="0"
       y="0"
       xlink:href="#path3775-7-4-4-8"
       id="use3976"
       transform="translate(0,68)"
       width="512"
       height="512" />
    <use
       x="0"
       y="0"
       xlink:href="#path3775-7-4-4-8"
       id="use3980"
       transform="translate(0,136)"
       width="512"
       height="512" />
    <use
       x="0"
       y="0"
       xlink:href="#path3775-7-4-4-8"
       id="use3990"
       transform="translate(0,204)"
       width="512"
       height="512" />
    <image
       sodipodi:absref="M:\OpenTTDCoop\OpenGFX Mars\graphics\Buildings\GeneralTiles/GrassGroundTile_32bpp.png"
       xlink:href="GeneralTiles/GrassGroundTile_32bpp.png"
       width="64"
       height="31"
       id="image4004"
       x="-144"
       y="656.36218" />
    <image
       sodipodi:absref="M:\OpenTTDCoop\OpenGFX Mars\graphics\Buildings\BlockShapes/BuildingBlockv2_28x28.png"
       xlink:href="BlockShapes/BuildingBlockv2_28x28.png"
       width="64"
       height="64"
       id="image3046"
       x="72"
       y="544.36218" />
    <image
       sodipodi:absref="M:\OpenTTDCoop\OpenGFX Mars\graphics\Buildings\BlockShapes/AirLockTunnel_2.png"
       xlink:href="BlockShapes/AirLockTunnel_2.png"
       width="64"
       height="31"
       id="image3057"
       x="72"
       y="577.36218" />
    <image
       sodipodi:absref="M:\OpenTTDCoop\OpenGFX Mars\graphics\Buildings\BlockShapes/AirLockTunnel2_2.png"
       xlink:href="BlockShapes/AirLockTunnel2_2.png"
       width="64"
       height="31"
       id="image3068"
       x="72"
       y="577.36218" />
    <image
       sodipodi:absref="M:\OpenTTDCoop\OpenGFX Mars\graphics\Buildings\BlockShapes/AirLockTunnel_2.png"
       xlink:href="BlockShapes/AirLockTunnel_2.png"
       width="64"
       height="31"
       id="image3112-7"
       x="-6"
       y="572.36218" />
    <image
       sodipodi:absref="M:\OpenTTDCoop\OpenGFX Mars\graphics\Buildings\BlockShapes/AirLockTunnel_2.png"
       xlink:href="BlockShapes/AirLockTunnel_2.png"
       width="64"
       height="31"
       id="image3112"
       x="-4"
       y="573.36218" />
    <image
       sodipodi:absref="M:\OpenTTDCoop\OpenGFX Mars\graphics\Buildings\BlockShapes/AirLockTunnel2_16.png"
       xlink:href="BlockShapes/AirLockTunnel2_16.png"
       width="64"
       height="31"
       id="image3228"
       x="140"
       y="577.36218" />
    <image
       sodipodi:absref="M:\OpenTTDCoop\OpenGFX Mars\graphics\Buildings\BlockShapes/AirLockTunnel_16.png"
       xlink:href="BlockShapes/AirLockTunnel_16.png"
       width="64"
       height="31"
       id="image3239"
       x="140"
       y="577.36218" />
    <image
       sodipodi:absref="M:\OpenTTDCoop\OpenGFX Mars\graphics\Buildings\Parts/pillar_solid.png"
       xlink:href="Parts/pillar_solid.png"
       width="6"
       height="13"
       id="image3330"
       x="169"
       y="593.36218" />
    <image
       sodipodi:absref="M:\OpenTTDCoop\OpenGFX Mars\graphics\Buildings\Parts/pillar_solid.png"
       xlink:href="Parts/pillar_solid.png"
       width="6"
       height="13"
       id="image3330-7"
       x="145"
       y="581.36218" />
    <image
       sodipodi:absref="M:\OpenTTDCoop\OpenGFX Mars\graphics\Buildings\Parts/pillar_solid.png"
       xlink:href="Parts/pillar_solid.png"
       width="6"
       height="13"
       id="image3330-7-6"
       x="193"
       y="581.36218" />
    <image
       sodipodi:absref="M:\OpenTTDCoop\OpenGFX Mars\graphics\Buildings\BlockShapes/BuildingBlockv2_32x32.png"
       xlink:href="BlockShapes/BuildingBlockv2_32x32.png"
       width="64"
       height="64"
       id="image3250"
       x="140"
       y="536.36218" />
    <image
       sodipodi:absref="M:\OpenTTDCoop\OpenGFX Mars\graphics\Buildings\Parts/window_right.png"
       xlink:href="Parts/window_right.png"
       width="4"
       height="4"
       id="image3395"
       x="177"
       y="589.36218" />
    <image
       sodipodi:absref="M:\OpenTTDCoop\OpenGFX Mars\graphics\Buildings\Parts/window_left.png"
       xlink:href="Parts/window_left.png"
       width="4"
       height="4"
       id="image3406"
       x="149"
       y="582.36218" />
    <image
       sodipodi:absref="M:\OpenTTDCoop\OpenGFX Mars\graphics\Buildings\Parts/window_right.png"
       xlink:href="Parts/window_right.png"
       width="4"
       height="4"
       id="image3395-1"
       x="183"
       y="586.36218" />
    <image
       sodipodi:absref="M:\OpenTTDCoop\OpenGFX Mars\graphics\Buildings\Parts/window_left.png"
       xlink:href="Parts/window_left.png"
       width="4"
       height="4"
       id="image3406-4"
       x="163"
       y="589.36218" />
    <image
       sodipodi:absref="M:\OpenTTDCoop\OpenGFX Mars\graphics\Buildings\Parts/window_left.png"
       xlink:href="Parts/window_left.png"
       width="4"
       height="4"
       id="image3406-2"
       x="95"
       y="595.36218" />
    <image
       sodipodi:absref="M:\OpenTTDCoop\OpenGFX Mars\graphics\Buildings\Parts/window_right.png"
       xlink:href="Parts/window_right.png"
       width="4"
       height="4"
       id="image3395-1-3"
       x="109"
       y="595.36218" />
    <image
       sodipodi:absref="M:\OpenTTDCoop\OpenGFX Mars\graphics\Buildings\Parts/window_right.png"
       xlink:href="Parts/window_right.png"
       width="4"
       height="4"
       id="image3395-1-3-2"
       x="30"
       y="591.36218" />
    <image
       sodipodi:absref="M:\OpenTTDCoop\OpenGFX Mars\graphics\Buildings\Parts/window_right.png"
       xlink:href="Parts/window_right.png"
       width="4"
       height="4"
       id="image3395-1-3-2-2"
       x="47"
       y="583.36218" />
    <image
       sodipodi:absref="M:\OpenTTDCoop\OpenGFX Mars\graphics\Buildings\Parts/arial_tall.png"
       xlink:href="Parts/arial_tall.png"
       width="3"
       height="28"
       id="image4242-7"
       x="49"
       y="566.36218" />
    <image
       sodipodi:absref="M:\OpenTTDCoop\OpenGFX Mars\graphics\Buildings\BlockShapes/AirLockTunnel_16.png"
       xlink:href="BlockShapes/AirLockTunnel_16.png"
       width="64"
       height="31"
       id="image3589"
       x="192"
       y="569.36218" />
    <image
       sodipodi:absref="M:\OpenTTDCoop\OpenGFX Mars\graphics\Buildings\BlockShapes/AirLockTunnel2_32.png"
       xlink:href="BlockShapes/AirLockTunnel2_32.png"
       width="64"
       height="31"
       id="image3177-1"
       x="208"
       y="577.36218" />
    <image
       sodipodi:absref="M:\OpenTTDCoop\OpenGFX Mars\graphics\Buildings\BlockShapes/BuildingBlockv2_16x32.png"
       xlink:href="BlockShapes/BuildingBlockv2_16x32.png"
       width="64"
       height="64"
       id="image3531"
       x="206"
       y="543.36218" />
    <image
       sodipodi:absref="M:\OpenTTDCoop\OpenGFX Mars\graphics\Buildings\BlockShapes/AirLockTunnel_2.png"
       xlink:href="BlockShapes/AirLockTunnel_2.png"
       width="64"
       height="31"
       id="image3057-6"
       x="208"
       y="577.36218" />
    <image
       sodipodi:absref="M:\OpenTTDCoop\OpenGFX Mars\graphics\Buildings\Parts/window_left.png"
       xlink:href="Parts/window_left.png"
       width="4"
       height="4"
       id="image3406-4-4"
       x="229"
       y="596.36218" />
    <image
       sodipodi:absref="M:\OpenTTDCoop\OpenGFX Mars\graphics\Buildings\Parts/window_right.png"
       xlink:href="Parts/window_right.png"
       width="4"
       height="4"
       id="image3395-1-31"
       x="259"
       y="588.36218" />
    <image
       sodipodi:absref="M:\OpenTTDCoop\OpenGFX Mars\graphics\Buildings\BlockShapes/BuildingBlockv2_8x28.png"
       xlink:href="BlockShapes/BuildingBlockv2_8x28.png"
       width="64"
       height="64"
       id="image3731"
       x="262"
       y="536.36218" />
    <image
       sodipodi:absref="M:\OpenTTDCoop\OpenGFX Mars\graphics\Buildings\BlockShapes/AirLockTunnel2_32.png"
       xlink:href="BlockShapes/AirLockTunnel2_32.png"
       width="64"
       height="31"
       id="image3760"
       x="276"
       y="577.36218" />
    <image
       sodipodi:absref="M:\OpenTTDCoop\OpenGFX Mars\graphics\Buildings\BlockShapes/AirLockTunnel_2.png"
       xlink:href="BlockShapes/AirLockTunnel_2.png"
       width="64"
       height="31"
       id="image3112-7-9"
       x="266"
       y="572.36218" />
    <image
       sodipodi:absref="M:\OpenTTDCoop\OpenGFX Mars\graphics\Buildings\BlockShapes/AirLockTunnel_2.png"
       xlink:href="BlockShapes/AirLockTunnel_2.png"
       width="64"
       height="31"
       id="image3112-3"
       x="268"
       y="573.36218" />
    <image
       sodipodi:absref="M:\OpenTTDCoop\OpenGFX Mars\graphics\Buildings\BlockShapes/AirLockTunnel_8.png"
       xlink:href="BlockShapes/AirLockTunnel_8.png"
       width="64"
       height="31"
       id="image3101-1"
       x="276"
       y="577.36218" />
    <image
       sodipodi:absref="M:\OpenTTDCoop\OpenGFX Mars\graphics\Buildings\Parts/window_left.png"
       xlink:href="Parts/window_left.png"
       width="4"
       height="4"
       id="image3406-4-4-6"
       x="315"
       y="594.36218" />
    <image
       sodipodi:absref="M:\OpenTTDCoop\OpenGFX Mars\graphics\Buildings\BlockShapes/AirLockTunnel2_8.png"
       xlink:href="BlockShapes/AirLockTunnel2_8.png"
       width="64"
       height="31"
       id="image3924-8"
       x="368"
       y="565.36218" />
    <image
       sodipodi:absref="M:\OpenTTDCoop\OpenGFX Mars\graphics\Buildings\BlockShapes/BuildingBlockv2_28x16.png"
       xlink:href="BlockShapes/BuildingBlockv2_28x16.png"
       width="64"
       height="64"
       id="image3873"
       x="352"
       y="540.36218" />
    <image
       sodipodi:absref="M:\OpenTTDCoop\OpenGFX Mars\graphics\Buildings\BlockShapes/AirLockTunnel_2.png"
       xlink:href="BlockShapes/AirLockTunnel_2.png"
       width="64"
       height="31"
       id="image3057-2"
       x="344"
       y="577.36218" />
    <image
       sodipodi:absref="M:\OpenTTDCoop\OpenGFX Mars\graphics\Buildings\BlockShapes/AirLockTunnel2_8.png"
       xlink:href="BlockShapes/AirLockTunnel2_8.png"
       width="64"
       height="31"
       id="image3924"
       x="344"
       y="577.36218" />
    <image
       sodipodi:absref="M:\OpenTTDCoop\OpenGFX Mars\graphics\Buildings\BlockShapes/AirLockTunnel2_16.png"
       xlink:href="BlockShapes/AirLockTunnel2_16.png"
       width="64"
       height="31"
       id="image4070"
       x="412"
       y="577.36218" />
    <image
       sodipodi:absref="M:\OpenTTDCoop\OpenGFX Mars\graphics\Buildings\Parts/window_right.png"
       xlink:href="Parts/window_right.png"
       width="4"
       height="4"
       id="image3395-1-31-1-8"
       x="465"
       y="588.36218" />
    <image
       sodipodi:absref="M:\OpenTTDCoop\OpenGFX Mars\graphics\Buildings\Parts/window_right.png"
       xlink:href="Parts/window_right.png"
       width="4"
       height="4"
       id="image3395-1-31-1-8-4"
       x="435"
       y="593.36218" />
    <image
       sodipodi:absref="M:\OpenTTDCoop\OpenGFX Mars\graphics\Buildings\Parts/window_left.png"
       xlink:href="Parts/window_left.png"
       width="4"
       height="4"
       id="image3406-4-4-6-9"
       x="373"
       y="592.36218" />
    <image
       sodipodi:absref="M:\OpenTTDCoop\OpenGFX Mars\graphics\Buildings\Parts/arial_tall.png"
       xlink:href="Parts/arial_tall.png"
       width="3"
       height="28"
       id="image4242"
       x="244"
       y="579.36218" />
    <image
       sodipodi:absref="M:\OpenTTDCoop\OpenGFX Mars\graphics\Buildings\BlockShapes/AirLockTunnel_8.png"
       xlink:href="BlockShapes/AirLockTunnel_8.png"
       width="64"
       height="31"
       id="image3101"
       x="4"
       y="577.36218" />
    <image
       sodipodi:absref="M:\OpenTTDCoop\OpenGFX Mars\graphics\Buildings\Parts/arial_tall.png"
       xlink:href="Parts/arial_tall.png"
       width="3"
       height="28"
       id="image4242-8"
       x="368"
       y="552.36218" />
    <rect
       style="fill:#0000ff;fill-opacity:1;stroke:none"
       id="rect2987-1-7"
       width="64"
       height="64"
       x="4"
       y="612.36218" />
    <rect
       style="fill:#0000ff;fill-opacity:1;stroke:none"
       id="rect2987-3-6"
       width="64"
       height="64"
       x="72"
       y="612.36218" />
    <rect
       style="fill:#0000ff;fill-opacity:1;stroke:none"
       id="rect2987-5-3"
       width="64"
       height="64"
       x="140"
       y="612.36218" />
    <rect
       style="fill:#0000ff;fill-opacity:1;stroke:none"
       id="rect2987-9-6"
       width="64"
       height="64"
       x="208"
       y="612.36218" />
    <rect
       style="fill:#0000ff;fill-opacity:1;stroke:none"
       id="rect2987-8-1"
       width="64"
       height="64"
       x="276"
       y="612.36218" />
    <rect
       style="fill:#0000ff;fill-opacity:1;stroke:none"
       id="rect2987-4-5"
       width="64"
       height="64"
       x="344"
       y="612.36218" />
    <image
       sodipodi:absref="M:\OpenTTDCoop\OpenGFX Mars\graphics\Buildings\BlockShapes/AirLockTunnel2_32.png"
       xlink:href="BlockShapes/AirLockTunnel2_32.png"
       width="64"
       height="31"
       id="image3177-2"
       x="4"
       y="645.36218" />
    <image
       sodipodi:absref="M:\OpenTTDCoop\OpenGFX Mars\graphics\Buildings\BlockShapes/BuildingBlockv2_28x28.png"
       xlink:href="BlockShapes/BuildingBlockv2_28x28.png"
       width="64"
       height="64"
       id="image3046-0"
       x="72"
       y="612.36218" />
    <image
       sodipodi:absref="M:\OpenTTDCoop\OpenGFX Mars\graphics\Buildings\BlockShapes/AirLockTunnel_2.png"
       xlink:href="BlockShapes/AirLockTunnel_2.png"
       width="64"
       height="31"
       id="image3057-9"
       x="72"
       y="645.36218" />
    <image
       sodipodi:absref="M:\OpenTTDCoop\OpenGFX Mars\graphics\Buildings\BlockShapes/AirLockTunnel2_16.png"
       xlink:href="BlockShapes/AirLockTunnel2_16.png"
       width="64"
       height="31"
       id="image3228-3"
       x="140"
       y="645.36218" />
    <image
       sodipodi:absref="M:\OpenTTDCoop\OpenGFX Mars\graphics\Buildings\Parts/pillar_solid.png"
       xlink:href="Parts/pillar_solid.png"
       width="6"
       height="13"
       id="image3330-2"
       x="169"
       y="661.36218" />
    <image
       sodipodi:absref="M:\OpenTTDCoop\OpenGFX Mars\graphics\Buildings\Parts/window_left.png"
       xlink:href="Parts/window_left.png"
       width="4"
       height="4"
       id="image3406-2-2"
       x="95"
       y="663.36218" />
    <image
       sodipodi:absref="M:\OpenTTDCoop\OpenGFX Mars\graphics\Buildings\Parts/window_right.png"
       xlink:href="Parts/window_right.png"
       width="4"
       height="4"
       id="image3395-1-3-0"
       x="109"
       y="663.36218" />
    <image
       sodipodi:absref="M:\OpenTTDCoop\OpenGFX Mars\graphics\Buildings\Parts/window_right.png"
       xlink:href="Parts/window_right.png"
       width="4"
       height="4"
       id="image3395-1-3-2-0"
       x="30"
       y="659.36218" />
    <image
       sodipodi:absref="M:\OpenTTDCoop\OpenGFX Mars\graphics\Buildings\Parts/window_right.png"
       xlink:href="Parts/window_right.png"
       width="4"
       height="4"
       id="image3395-1-3-2-2-1"
       x="47"
       y="651.36218" />
    <image
       sodipodi:absref="M:\OpenTTDCoop\OpenGFX Mars\graphics\Buildings\BlockShapes/AirLockTunnel_16.png"
       xlink:href="BlockShapes/AirLockTunnel_16.png"
       width="64"
       height="31"
       id="image3589-6"
       x="192"
       y="637.36218" />
    <image
       sodipodi:absref="M:\OpenTTDCoop\OpenGFX Mars\graphics\Buildings\BlockShapes/BuildingBlockv2_16x32.png"
       xlink:href="BlockShapes/BuildingBlockv2_16x32.png"
       width="64"
       height="64"
       id="image3531-7"
       x="206"
       y="611.36218" />
    <image
       sodipodi:absref="M:\OpenTTDCoop\OpenGFX Mars\graphics\Buildings\Parts/window_left.png"
       xlink:href="Parts/window_left.png"
       width="4"
       height="4"
       id="image3406-4-4-7"
       x="229"
       y="664.36218" />
    <image
       sodipodi:absref="M:\OpenTTDCoop\OpenGFX Mars\graphics\Buildings\Parts/window_right.png"
       xlink:href="Parts/window_right.png"
       width="4"
       height="4"
       id="image3395-1-31-7"
       x="259"
       y="656.36218" />
    <image
       sodipodi:absref="M:\OpenTTDCoop\OpenGFX Mars\graphics\Buildings\BlockShapes/BuildingBlockv2_8x28.png"
       xlink:href="BlockShapes/BuildingBlockv2_8x28.png"
       width="64"
       height="64"
       id="image3731-7"
       x="262"
       y="604.36218" />
    <image
       sodipodi:absref="M:\OpenTTDCoop\OpenGFX Mars\graphics\Buildings\BlockShapes/AirLockTunnel2_32.png"
       xlink:href="BlockShapes/AirLockTunnel2_32.png"
       width="64"
       height="31"
       id="image3760-7"
       x="276"
       y="645.36218" />
    <image
       sodipodi:absref="M:\OpenTTDCoop\OpenGFX Mars\graphics\Buildings\BlockShapes/AirLockTunnel_2.png"
       xlink:href="BlockShapes/AirLockTunnel_2.png"
       width="64"
       height="31"
       id="image3112-7-9-3"
       x="266"
       y="640.36218" />
    <image
       sodipodi:absref="M:\OpenTTDCoop\OpenGFX Mars\graphics\Buildings\BlockShapes/AirLockTunnel_2.png"
       xlink:href="BlockShapes/AirLockTunnel_2.png"
       width="64"
       height="31"
       id="image3112-3-3"
       x="268"
       y="641.36218" />
    <image
       sodipodi:absref="M:\OpenTTDCoop\OpenGFX Mars\graphics\Buildings\BlockShapes/BuildingBlockv2_28x16.png"
       xlink:href="BlockShapes/BuildingBlockv2_28x16.png"
       width="64"
       height="64"
       id="image3873-1"
       x="352"
       y="608.36218" />
    <image
       sodipodi:absref="M:\OpenTTDCoop\OpenGFX Mars\graphics\Buildings\BlockShapes/AirLockTunnel2_8.png"
       xlink:href="BlockShapes/AirLockTunnel2_8.png"
       width="64"
       height="31"
       id="image3924-2"
       x="344"
       y="645.36218" />
    <rect
       style="fill:#0000ff;fill-opacity:1;stroke:none"
       id="rect2987-5-9"
       width="64"
       height="64"
       x="140"
       y="680.36218" />
    <rect
       style="fill:#0000ff;fill-opacity:1;stroke:none"
       id="rect2987-9-8"
       width="64"
       height="64"
       x="208"
       y="680.36218" />
    <rect
       style="fill:#0000ff;fill-opacity:1;stroke:none"
       id="rect2987-8-4"
       width="64"
       height="64"
       x="276"
       y="680.36218" />
    <rect
       style="fill:#0000ff;fill-opacity:1;stroke:none"
       id="rect2987-4-1"
       width="64"
       height="64"
       x="344"
       y="680.36218" />
    <image
       sodipodi:absref="M:\OpenTTDCoop\OpenGFX Mars\graphics\Buildings\BlockShapes/AirLockTunnel2_16.png"
       xlink:href="BlockShapes/AirLockTunnel2_16.png"
       width="64"
       height="31"
       id="image3228-8"
       x="140"
       y="713.36218" />
    <image
       sodipodi:absref="M:\OpenTTDCoop\OpenGFX Mars\graphics\Buildings\Parts/pillar_solid.png"
       xlink:href="Parts/pillar_solid.png"
       width="6"
       height="13"
       id="image3330-7-3"
       x="145"
       y="717.36218" />
    <image
       sodipodi:absref="M:\OpenTTDCoop\OpenGFX Mars\graphics\Buildings\BlockShapes/BuildingBlockv2_16x32.png"
       xlink:href="BlockShapes/BuildingBlockv2_16x32.png"
       width="64"
       height="64"
       id="image3531-9"
       x="206"
       y="679.36218" />
    <image
       sodipodi:absref="M:\OpenTTDCoop\OpenGFX Mars\graphics\Buildings\BlockShapes/AirLockTunnel2_32.png"
       xlink:href="BlockShapes/AirLockTunnel2_32.png"
       width="64"
       height="31"
       id="image3760-8"
       x="276"
       y="713.36218" />
    <image
       sodipodi:absref="M:\OpenTTDCoop\OpenGFX Mars\graphics\Buildings\BlockShapes/BuildingBlockv2_28x16.png"
       xlink:href="BlockShapes/BuildingBlockv2_28x16.png"
       width="64"
       height="64"
       id="image3873-5"
       x="352"
       y="676.36218" />
    <image
       sodipodi:absref="M:\OpenTTDCoop\OpenGFX Mars\graphics\Buildings\Parts/top_vent.png"
       xlink:href="Parts/top_vent.png"
       width="12"
       height="8"
       id="image3133"
       x="90"
       y="574.36218" />
    <image
       sodipodi:absref="M:\OpenTTDCoop\OpenGFX Mars\graphics\Buildings\Parts/top_vent.png"
       xlink:href="Parts/top_vent.png"
       width="12"
       height="8"
       id="image3133-1"
       x="184"
       y="570.36218" />
    <image
       sodipodi:absref="M:\OpenTTDCoop\OpenGFX Mars\graphics\Buildings\Parts/top_vent.png"
       xlink:href="Parts/top_vent.png"
       width="12"
       height="8"
       id="image3133-4"
       x="302"
       y="593.36218" />
    <image
       sodipodi:absref="M:\OpenTTDCoop\OpenGFX Mars\graphics\Buildings\Parts/pillar_solid.png"
       xlink:href="Parts/pillar_solid.png"
       width="6"
       height="13"
       id="image3330-2-4"
       x="193"
       y="649.36218" />
    <image
       sodipodi:absref="M:\OpenTTDCoop\OpenGFX Mars\graphics\Buildings\Parts/pillar_solid.png"
       xlink:href="Parts/pillar_solid.png"
       width="6"
       height="13"
       id="image3330-2-4-8"
       x="145"
       y="649.36218" />
    <image
       sodipodi:absref="M:\OpenTTDCoop\OpenGFX Mars\graphics\Buildings\Parts/pillar_solid.png"
       xlink:href="Parts/pillar_solid.png"
       width="6"
       height="13"
       id="image3330-2-4-8-8"
       x="169"
       y="637.36218" />
    <rect
       style="fill:#0000ff;fill-opacity:1;stroke:none"
       id="rect2987-0-16"
       width="64"
       height="64"
       x="412"
       y="612.36218" />
    <image
       width="64"
       height="64"
       id="image3873-0-8"
       x="430"
       y="604.36218"
       xlink:href="M:\OpenTTDCoop\OpenGFX Mars\graphics\Buildings\BlockShapes/BuildingBlockv2_28x16.png"
       sodipodi:absref="M:\OpenTTDCoop\OpenGFX Mars\graphics\Buildings\BlockShapes/BuildingBlockv2_28x16.png" />
    <image
       y="645.36218"
       x="412"
       id="image3223-5"
       xlink:href="file:///M:/OpenTTDCoop/OpenGFX%20Mars/graphics/Buildings/BlockShapes/AirLockTunnel_32.png"
       height="31"
       width="64" />
    <rect
       style="fill:#0000ff;fill-opacity:1;stroke:none"
       id="rect2987-0-8"
       width="64"
       height="64"
       x="412"
       y="680.36218" />
    <image
       y="713.36218"
       x="412"
       id="image3223-2"
       xlink:href="file:///M:/OpenTTDCoop/OpenGFX%20Mars/graphics/Buildings/BlockShapes/AirLockTunnel_32.png"
       height="31"
       width="64" />
    <image
       width="64"
       height="31"
       id="image3228-2"
       x="480"
       y="577.36218"
       xlink:href="M:\OpenTTDCoop\OpenGFX Mars\graphics\Buildings\BlockShapes/AirLockTunnel2_16.png"
       sodipodi:absref="M:\OpenTTDCoop\OpenGFX Mars\graphics\Buildings\BlockShapes/AirLockTunnel2_16.png" />
    <image
       width="64"
       height="31"
       id="image3239-3"
       x="480"
       y="577.36218"
       xlink:href="M:\OpenTTDCoop\OpenGFX Mars\graphics\Buildings\BlockShapes/AirLockTunnel_16.png"
       sodipodi:absref="M:\OpenTTDCoop\OpenGFX Mars\graphics\Buildings\BlockShapes/AirLockTunnel_16.png" />
    <image
       width="6"
       height="13"
       id="image3330-3"
       x="509"
       y="591.36218"
       xlink:href="M:\OpenTTDCoop\OpenGFX Mars\graphics\Buildings\Parts/pillar_solid.png"
       sodipodi:absref="M:\OpenTTDCoop\OpenGFX Mars\graphics\Buildings\Parts/pillar_solid.png" />
    <image
       width="6"
       height="13"
       id="image3330-7-4"
       x="489"
       y="581.36218"
       xlink:href="M:\OpenTTDCoop\OpenGFX Mars\graphics\Buildings\Parts/pillar_solid.png"
       sodipodi:absref="M:\OpenTTDCoop\OpenGFX Mars\graphics\Buildings\Parts/pillar_solid.png" />
    <image
       width="6"
       height="13"
       id="image3330-7-6-1"
       x="529"
       y="581.36218"
       xlink:href="M:\OpenTTDCoop\OpenGFX Mars\graphics\Buildings\Parts/pillar_solid.png"
       sodipodi:absref="M:\OpenTTDCoop\OpenGFX Mars\graphics\Buildings\Parts/pillar_solid.png" />
    <image
       width="64"
       height="64"
       id="image4023-6-5-7"
       x="480"
       y="536.36218"
       xlink:href="M:\OpenTTDCoop\OpenGFX Mars\graphics\Buildings\BlockShapes/BuildingBlockv2_28x28.png" />
    <image
       width="4"
       height="4"
       id="image3406-4-4-6-9-1"
       x="493"
       y="582.36218"
       xlink:href="M:\OpenTTDCoop\OpenGFX Mars\graphics\Buildings\Parts/window_left.png"
       sodipodi:absref="M:\OpenTTDCoop\OpenGFX Mars\graphics\Buildings\Parts/window_left.png" />
    <image
       width="4"
       height="4"
       id="image3406-4-4-6-9-1-9"
       x="497"
       y="584.36218"
       xlink:href="M:\OpenTTDCoop\OpenGFX Mars\graphics\Buildings\Parts/window_left.png"
       sodipodi:absref="M:\OpenTTDCoop\OpenGFX Mars\graphics\Buildings\Parts/window_left.png" />
    <image
       width="4"
       height="4"
       id="image3406-4-4-6-9-1-9-8"
       x="501"
       y="586.36218"
       xlink:href="M:\OpenTTDCoop\OpenGFX Mars\graphics\Buildings\Parts/window_left.png"
       sodipodi:absref="M:\OpenTTDCoop\OpenGFX Mars\graphics\Buildings\Parts/window_left.png" />
    <rect
       style="fill:#0000ff;fill-opacity:1;stroke:none"
       id="rect2987-0-1-6"
       width="64"
       height="64"
       x="480"
       y="612.36218" />
    <image
       width="64"
       height="31"
       id="image3228-2-5"
       x="480"
       y="645.36218"
       xlink:href="M:\OpenTTDCoop\OpenGFX Mars\graphics\Buildings\BlockShapes/AirLockTunnel2_16.png"
       sodipodi:absref="M:\OpenTTDCoop\OpenGFX Mars\graphics\Buildings\BlockShapes/AirLockTunnel2_16.png" />
    <image
       width="64"
       height="31"
       id="image3239-3-0"
       x="480"
       y="645.36218"
       xlink:href="M:\OpenTTDCoop\OpenGFX Mars\graphics\Buildings\BlockShapes/AirLockTunnel_16.png"
       sodipodi:absref="M:\OpenTTDCoop\OpenGFX Mars\graphics\Buildings\BlockShapes/AirLockTunnel_16.png" />
    <image
       width="6"
       height="13"
       id="image3330-3-2"
       x="509"
       y="659.36218"
       xlink:href="M:\OpenTTDCoop\OpenGFX Mars\graphics\Buildings\Parts/pillar_solid.png"
       sodipodi:absref="M:\OpenTTDCoop\OpenGFX Mars\graphics\Buildings\Parts/pillar_solid.png" />
    <image
       width="6"
       height="13"
       id="image3330-7-4-8"
       x="489"
       y="649.36218"
       xlink:href="M:\OpenTTDCoop\OpenGFX Mars\graphics\Buildings\Parts/pillar_solid.png"
       sodipodi:absref="M:\OpenTTDCoop\OpenGFX Mars\graphics\Buildings\Parts/pillar_solid.png" />
    <image
       width="6"
       height="13"
       id="image3330-7-6-1-6"
       x="529"
       y="649.36218"
       xlink:href="M:\OpenTTDCoop\OpenGFX Mars\graphics\Buildings\Parts/pillar_solid.png"
       sodipodi:absref="M:\OpenTTDCoop\OpenGFX Mars\graphics\Buildings\Parts/pillar_solid.png" />
    <image
       width="3"
       height="28"
       id="image4242-8-9"
       x="515"
       y="554.36218"
       xlink:href="M:\OpenTTDCoop\OpenGFX Mars\graphics\Buildings\Parts/arial_tall.png"
       sodipodi:absref="M:\OpenTTDCoop\OpenGFX Mars\graphics\Buildings\Parts/arial_tall.png" />
    <rect
       style="fill:#0000ff;fill-opacity:1;stroke:none"
       id="rect2987-0-1-6-6"
       width="64"
       height="64"
       x="480"
       y="680.36218" />
    <image
       width="6"
       height="13"
       id="image3330-3-2-8"
       x="509"
       y="727.36218"
       xlink:href="M:\OpenTTDCoop\OpenGFX Mars\graphics\Buildings\Parts/pillar_solid.png"
       sodipodi:absref="M:\OpenTTDCoop\OpenGFX Mars\graphics\Buildings\Parts/pillar_solid.png" />
    <image
       width="6"
       height="13"
       id="image3330-7-4-8-8"
       x="489"
       y="717.36218"
       xlink:href="M:\OpenTTDCoop\OpenGFX Mars\graphics\Buildings\Parts/pillar_solid.png"
       sodipodi:absref="M:\OpenTTDCoop\OpenGFX Mars\graphics\Buildings\Parts/pillar_solid.png" />
    <image
       width="6"
       height="13"
       id="image3330-7-6-1-6-2"
       x="529"
       y="717.36218"
       xlink:href="M:\OpenTTDCoop\OpenGFX Mars\graphics\Buildings\Parts/pillar_solid.png"
       sodipodi:absref="M:\OpenTTDCoop\OpenGFX Mars\graphics\Buildings\Parts/pillar_solid.png" />
  </g>
</svg>
